{"title":"Sex Tape (2014) Dual Audio BDRip 720p MKV","uid":11165367,"size":4957894454,"categoryP":"video","categoryS":"hd___movies","magnet":"?xt=urn:btih:db1ea1d88ffec2387cce574310746e2a7d7b604c&amp;dn=Sex+Tape+%282014%29+Dual+Audio+BDRip+720p+MKV&amp;tr=udp%3A%2F%2Ftracker.openbittorrent.com%3A80&amp;tr=udp%3A%2F%2Fopen.demonii.com%3A1337&amp;tr=udp%3A%2F%2Ftracker.coppersurfer.tk%3A6969&amp;tr=udp%3A%2F%2Fexodus.desync.com%3A6969","seeders":4,"leechers":0,"uploader":"darkj6","files":-1,"time":1412621299,"description":" ______   _______  ______    ___   _      ___  --------|\n|      | |   _   ||    _ |  |   | | |    |   ||   |----|    \n|  _    ||  |_|  ||   | ||  |   |_| |    |   ||   |___ \n| | |   ||       ||   |_||_ |      _|    |   ||    _  |\n| |_|   ||       ||    __  ||     |_  ___|   ||   | | |\n|       ||   _   ||   |  | ||    _  ||       ||   |_| |\n|______| |__| |__||___|  |_||___| |_||_______||_______|\n               &lt;a href=&quot;\nhttps://thepiratebay.se/user/darkj6/&quot; rel=&quot;nofollow&quot; target=&quot;_NEW&quot;&gt;\nhttps://thepiratebay.se/user/darkj6/&lt;/a&gt;\n\nJoin ThePirateBay Forum:\n                                        &lt;a href=&quot;\nhttps://forum.suprbay.org/member.php?action=register&amp;referrer=908&quot; rel=&quot;nofollow&quot; target=&quot;_NEW&quot;&gt;\nhttps://forum.suprbay.org/member.php?action=register&amp;referrer=908&lt;/a&gt;\n\n\n  &lt;a href=&quot;\nhttp://www.imdb.com/title/tt1956620/&quot; rel=&quot;nofollow&quot; target=&quot;_NEW&quot;&gt;\nhttp://www.imdb.com/title/tt1956620/&lt;/a&gt;\n\n\nFormat : MKV\n\n Quality: BDRip 720p [CHD] \n\nVideo : 5095 Kb / s, 1280x694 \n\nAudio : Russian: AC3, 384 Kb / s (2 ch) \n\n        English: DTS, 1510 kb / s (6 ch)\n &lt;a href=&quot;\nhttp://you-logo.ru/show-image.php?id=e08ab5d395def21dcf1eeee706cb697b&quot; rel=&quot;nofollow&quot; target=&quot;_NEW&quot;&gt;\nhttp://you-logo.ru/show-image.php?id=e08ab5d395def21dcf1eeee706cb697b&lt;/a&gt;\n &lt;a href=&quot;\nhttp://you-logo.ru/show-image.php?id=0abe113f0ccdadb994216fc38025a21e&quot; rel=&quot;nofollow&quot; target=&quot;_NEW&quot;&gt;\nhttp://you-logo.ru/show-image.php?id=0abe113f0ccdadb994216fc38025a21e&lt;/a&gt;\n &lt;a href=&quot;\nhttp://you-logo.ru/show-image.php?id=fc5bd71a056138c80fd9f4c2ed5917ef&quot; rel=&quot;nofollow&quot; target=&quot;_NEW&quot;&gt;\nhttp://you-logo.ru/show-image.php?id=fc5bd71a056138c80fd9f4c2ed5917ef&lt;/a&gt;\n\n\nFormat : Matroska\nFormat version : Version 4 / Version 2\nFile size : 4.62 GiB\nDuration : 1h 34mn\nOverall bit rate : 6 989 Kbps\nEncoded date : UTC 2014-10-06 14:38:49\nWriting application : mkvmerge v6.1.0 ('Old Devil') built on Mar 4 2013 09:10:42\nWriting library : libebml v1.3.0 + libmatroska v1.4.0\nDURATION : 01:34:34.678000000\nNUMBER_OF_FRAMES : 532001\nNUMBER_OF_BYTES : 1070386012\n_STATISTICS_WRITING_APP : mkvmerge v7.1.0 ('Good Love') 64bit built on Jul 27 2014 13:06:55\n_STATISTICS_WRITING_DATE_UTC : 2014-10-03 11:22:52\n_STATISTICS_TAGS : BPS DURATION NUMBER_OF_FRAMES NUMBER_OF_BYTES\n\nVideo\nID : 1\nFormat : AVC\nFormat/Info : Advanced Video Codec\nFormat profile : &lt;a class=&quot;__cf_email__&quot; href=&quot;/cdn-cgi/l/email-protection&quot; data-cfemail=&quot;f1b9989699b1bdc5dfc0&quot;&gt;[email&amp;#160;protected]&lt;/a&gt;&lt;script cf-hash='f9e31' type=&quot;text/javascript&quot;&gt;\n/* &lt;![CDATA[ */!function(){try{var t=&quot;currentScript&quot;in document?document.currentScript:function(){for(var t=document.getElementsByTagName(&quot;script&quot;),e=t.length;e--;)if(t[e].getAttribute(&quot;cf-hash&quot;))return t[e]}();if(t&amp;&amp;t.previousSibling){var e,r,n,i,c=t.previousSibling,a=c.getAttribute(&quot;data-cfemail&quot;);if(a){for(e=&quot;&quot;,r=parseInt(a.substr(0,2),16),n=2;a.length-n;n+=2)i=parseInt(a.substr(n,2),16)^r,e+=String.fromCharCode(i);e=document.createTextNode(e),c.parentNode.replaceChild(e,c)}}}catch(u){}}();/* ]]&gt; */&lt;/script&gt;\nFormat settings, CABAC : Yes\nFormat settings, ReFrames : 9 frames\nCodec ID : V_MPEG4/ISO/AVC\nDuration : 1h 34mn\nBit rate : 5 095 Kbps\nWidth : 1 280 pixels\nHeight : 694 pixels\nDisplay aspect ratio : 1.85:1\nFrame rate : 23.976 fps\nColor space : YUV\nChroma subsampling : 4:2:0\nBit depth : 8 bits\nScan type : Progressive\nBits/(Pixel*Frame) : 0.239\nStream size : 3.27 GiB (71%)\nWriting library : x264 core 138 r2358 9e941d1\nEncoding settings : cabac=1 / ref=9 / deblock=1:-3:-3 / analyse=0x3:0x113 / me=umh / subme=11 / psy=1 / psy_rd=1.10:0.15 / mixed_ref=1 / me_range=32 / chroma_me=1 / trellis=2 / 8x8dct=1 / cqm=0 / deadzone=21,11 / fast_pskip=0 / chroma_qp_offset=-2 / threads=18 / lookahead_threads=1 / sliced_threads=0 / nr=0 / decimate=1 / interlaced=0 / bluray_compat=0 / constrained_intra=0 / bframes=6 / b_pyramid=2 / b_adapt=2 / b_bias=0 / direct=3 / weightb=1 / open_gop=0 / weightp=2 / keyint=250 / keyint_min=23 / scenecut=40 / intra_refresh=0 / rc_lookahead=40 / rc=2pass / mbtree=0 / bitrate=5095 / ratetol=1.0 / qcomp=0.60 / qpmin=0 / qpmax=69 / qpstep=4 / cplxblur=20.0 / qblur=0.5 / vbv_maxrate=40000 / vbv_bufsize=30000 / nal_hrd=none / ip_ratio=1.40 / pb_ratio=1.30 / aq=1:0.80\nLanguage : English\nDefault : Yes\nForced : No\nDURATION : 01:34:34.706000000\nNUMBER_OF_FRAMES : 136057\nNUMBER_OF_BYTES : 3613254768\n_STATISTICS_WRITING_APP : mkvmerge v7.1.0 ('Good Love') 64bit built on Jul 27 2014 13:06:55\n_STATISTICS_WRITING_DATE_UTC : 2014-10-03 11:22:52\n_STATISTICS_TAGS : BPS DURATION NUMBER_OF_FRAMES NUMBER_OF_BYTES\n\nAudio #1\nID : 2\nFormat : AC-3\nFormat/Info : Audio Coding 3\nMode extension : CM (complete main)\nFormat settings, Endianness : Big\nCodec ID : A_AC3\nDuration : 1h 34mn\nBit rate mode : Constant\nBit rate : 384 Kbps\nChannel(s) : 2 channels\nChannel positions : Front: L R\nSampling rate : 48.0 KHz\nBit depth : 16 bits\nCompression mode : Lossy\nStream size : 260 MiB (5%)\nLanguage : Russian\nDefault : No\nForced : No\n\nAudio #2\nID : 3\nFormat : DTS\nFormat/Info : Digital Theater Systems\nCodec ID : A_DTS\nDuration : 1h 34mn\nBit rate mode : Constant\nBit rate : 1 510 Kbps\nChannel(s) : 6 channels\nChannel positions : Front: L C R, Side: L R, LFE\nSampling rate : 48.0 KHz\nBit depth : 24 bits\nCompression mode : Lossy\nStream size : 1 021 MiB (22%)\nLanguage : English\nDefault : No\nForced : No\n\nMenu\n00:00:00.000 : en:00:00:00.000\n00:03:53.483 : en:00:03:53.483\n00:09:34.073 : en:00:09:34.073\n00:14:36.626 : en:00:14:36.626\n00:20:05.287 : en:00:20:05.287\n00:27:21.014 : en:00:27:21.014\n00:34:03.667 : en:00:34:03.667\n00:40:19.167 : en:00:40:19.167\n00:45:21.636 : en:00:45:21.636\n00:50:42.706 : en:00:50:42.706\n00:57:41.541 : en:00:57:41.541\n01:05:34.556 : en:01:05:34.556\n01:11:51.682 : en:01:11:51.682\n01:20:06.510 : en:01:20:06.510\n01:25:16.737 : en:01:25:16.737\n01:29:47.299 : en:01:29:47.299\n\n","torrent":{"xt":"urn:btih:db1ea1d88ffec2387cce574310746e2a7d7b604c","amp;dn":"Sex+Tape+%282014%29+Dual+Audio+BDRip+720p+MKV","amp;tr":["udp%3A%2F%2Ftracker.openbittorrent.com%3A80","udp%3A%2F%2Fopen.demonii.com%3A1337","udp%3A%2F%2Ftracker.coppersurfer.tk%3A6969","udp%3A%2F%2Fexodus.desync.com%3A6969"],"infoHash":"db1ea1d88ffec2387cce574310746e2a7d7b604c","infoHashBuffer":{"type":"Buffer","data":[219,30,161,216,143,254,194,56,124,206,87,67,16,116,110,42,125,123,96,76]},"announce":[],"urlList":[]}}